<?xml version="1.0" encoding="UTF-8" standalone="no"?><svg xmlns="http://www.w3.org/2000/svg" xmlns:xlink="http://www.w3.org/1999/xlink" contentStyleType="text/css" height="393px" preserveAspectRatio="none" style="width:2433px;height:393px;background:#FFFFFF;" version="1.1" viewBox="0 0 2433 393" width="2433px" zoomAndPan="magnify"><defs/><g><!--MD5=[99b31deea5d7419a569cd5090bf83263]
cluster System--><g id="cluster_System"><path d="M833.5,6 L884.5,6 A3.75,3.75 0 0 1 887,8.5 L894,29.6094 L946.5,29.6094 A2.5,2.5 0 0 1 949,32.1094 L949,103.5 A2.5,2.5 0 0 1 946.5,106 L833.5,106 A2.5,2.5 0 0 1 831,103.5 L831,8.5 A2.5,2.5 0 0 1 833.5,6 " fill="none" style="stroke:#000000;stroke-width:1.5;"/><line style="stroke:#000000;stroke-width:1.5;" x1="831" x2="894" y1="29.6094" y2="29.6094"/><text fill="#000000" font-family="sans-serif" font-size="14" font-weight="bold" lengthAdjust="spacing" textLength="50" x="835" y="22.5332">System</text></g><!--MD5=[813ef456111f2733b06968795070ac9a]
cluster Microsoft.AspNetCore.Mvc.Filters--><g id="cluster_Microsoft.AspNetCore.Mvc.Filters"><path d="M1985.5,6 L2224.5,6 A3.75,3.75 0 0 1 2227,8.5 L2234,29.6094 L2234.5,29.6094 A2.5,2.5 0 0 1 2237,32.1094 L2237,103.5 A2.5,2.5 0 0 1 2234.5,106 L1985.5,106 A2.5,2.5 0 0 1 1983,103.5 L1983,8.5 A2.5,2.5 0 0 1 1985.5,6 " fill="none" style="stroke:#000000;stroke-width:1.5;"/><line style="stroke:#000000;stroke-width:1.5;" x1="1983" x2="2234" y1="29.6094" y2="29.6094"/><text fill="#000000" font-family="sans-serif" font-size="14" font-weight="bold" lengthAdjust="spacing" textLength="238" x="1987" y="22.5332">Microsoft.AspNetCore.Mvc.Filters</text></g><!--MD5=[e9231bb57e8d3acf5575b5aa5687c4df]
cluster OperationResult.ErrorHandling--><g id="cluster_OperationResult.ErrorHandling"><path d="M8.5,130 L226.5,130 A3.75,3.75 0 0 1 229,132.5 L236,153.6094 L2423.5,153.6094 A2.5,2.5 0 0 1 2426,156.1094 L2426,383.5 A2.5,2.5 0 0 1 2423.5,386 L8.5,386 A2.5,2.5 0 0 1 6,383.5 L6,132.5 A2.5,2.5 0 0 1 8.5,130 " fill="none" style="stroke:#000000;stroke-width:1.5;"/><line style="stroke:#000000;stroke-width:1.5;" x1="6" x2="236" y1="153.6094" y2="153.6094"/><text fill="#000000" font-family="sans-serif" font-size="14" font-weight="bold" lengthAdjust="spacing" textLength="217" x="10" y="146.5332">OperationResult.ErrorHandling</text></g><!--MD5=[8d96ff0353839083a510f703b9b09b1f]
cluster Rfc7807--><g id="cluster_Rfc7807"><path d="M430.5,174 L486.5,174 A3.75,3.75 0 0 1 489,176.5 L496,197.6094 L2399.5,197.6094 A2.5,2.5 0 0 1 2402,200.1094 L2402,359.5 A2.5,2.5 0 0 1 2399.5,362 L430.5,362 A2.5,2.5 0 0 1 428,359.5 L428,176.5 A2.5,2.5 0 0 1 430.5,174 " fill="none" style="stroke:#000000;stroke-width:1.5;"/><line style="stroke:#000000;stroke-width:1.5;" x1="428" x2="496" y1="197.6094" y2="197.6094"/><text fill="#000000" font-family="sans-serif" font-size="14" font-weight="bold" lengthAdjust="spacing" textLength="55" x="432" y="190.5332">Rfc7807</text></g><!--MD5=[78d25cd8210326800ba03a78c7b40ebd]
cluster Rfc9110--><g id="cluster_Rfc9110"><path d="M32.5,177.5 L88.5,177.5 A3.75,3.75 0 0 1 91,180 L98,201.1094 L401.5,201.1094 A2.5,2.5 0 0 1 404,203.6094 L404,356 A2.5,2.5 0 0 1 401.5,358.5 L32.5,358.5 A2.5,2.5 0 0 1 30,356 L30,180 A2.5,2.5 0 0 1 32.5,177.5 " fill="none" style="stroke:#000000;stroke-width:1.5;"/><line style="stroke:#000000;stroke-width:1.5;" x1="30" x2="98" y1="201.1094" y2="201.1094"/><text fill="#000000" font-family="sans-serif" font-size="14" font-weight="bold" lengthAdjust="spacing" textLength="55" x="34" y="194.0332">Rfc9110</text></g><!--MD5=[787494ff879e99315e413996e631a796]
class Attribute--><g id="elem_Attribute"><rect codeLine="3" fill="#F1F1F1" height="48" id="Attribute" rx="2.5" ry="2.5" style="stroke:#181818;stroke-width:0.5;" width="85" x="847.5" y="42"/><ellipse cx="862.5" cy="58" fill="#ADD1B2" rx="11" ry="11" style="stroke:#181818;stroke-width:1.0;"/><path d="M865.2656,53.875 Q865.4219,53.6563 865.6094,53.5469 Q865.7969,53.4375 866.0156,53.4375 Q866.3906,53.4375 866.625,53.7031 Q866.8594,53.9531 866.8594,54.5625 L866.8594,56.0156 Q866.8594,56.625 866.625,56.8906 Q866.3906,57.1563 866.0156,57.1563 Q865.6719,57.1563 865.4688,56.9531 Q865.2656,56.7656 865.1563,56.25 Q865.1094,55.8906 864.9219,55.7031 Q864.5938,55.3281 863.9844,55.1094 Q863.375,54.8906 862.75,54.8906 Q861.9844,54.8906 861.3438,55.2188 Q860.7188,55.5469 860.2188,56.2969 Q859.7344,57.0469 859.7344,58.0781 L859.7344,59.1719 Q859.7344,60.4063 860.625,61.2344 Q861.5156,62.0469 863.1094,62.0469 Q864.0469,62.0469 864.7031,61.7969 Q865.0938,61.6406 865.5156,61.2031 Q865.7813,60.9375 865.9219,60.8594 Q866.0781,60.7813 866.2813,60.7813 Q866.6094,60.7813 866.8594,61.0469 Q867.125,61.2969 867.125,61.6406 Q867.125,61.9844 866.7813,62.3906 Q866.2813,62.9688 865.4844,63.2969 Q864.4063,63.75 863.1094,63.75 Q861.5938,63.75 860.3906,63.125 Q859.4063,62.625 858.7188,61.5625 Q858.0313,60.4844 858.0313,59.2031 L858.0313,58.0469 Q858.0313,56.7188 858.6406,55.5781 Q859.2656,54.4219 860.3594,53.8125 Q861.4531,53.1875 862.6875,53.1875 Q863.4219,53.1875 864.0625,53.3594 Q864.7188,53.5156 865.2656,53.875 Z " fill="#000000"/><text fill="#000000" font-family="sans-serif" font-size="14" lengthAdjust="spacing" textLength="53" x="876.5" y="63.7285">Attribute</text><line style="stroke:#181818;stroke-width:0.5;" x1="848.5" x2="931.5" y1="74" y2="74"/><line style="stroke:#181818;stroke-width:0.5;" x1="848.5" x2="931.5" y1="82" y2="82"/></g><!--MD5=[ecd523174ca0c94b0bed96dcfe012cdf]
class ActionFilterAttribute--><g id="elem_ActionFilterAttribute"><rect codeLine="8" fill="#F1F1F1" height="48" id="ActionFilterAttribute" rx="2.5" ry="2.5" style="stroke:#181818;stroke-width:0.5;" width="156" x="2032" y="42"/><ellipse cx="2047" cy="58" fill="#ADD1B2" rx="11" ry="11" style="stroke:#181818;stroke-width:1.0;"/><path d="M2049.7656,53.875 Q2049.9219,53.6563 2050.1094,53.5469 Q2050.2969,53.4375 2050.5156,53.4375 Q2050.8906,53.4375 2051.125,53.7031 Q2051.3594,53.9531 2051.3594,54.5625 L2051.3594,56.0156 Q2051.3594,56.625 2051.125,56.8906 Q2050.8906,57.1563 2050.5156,57.1563 Q2050.1719,57.1563 2049.9688,56.9531 Q2049.7656,56.7656 2049.6563,56.25 Q2049.6094,55.8906 2049.4219,55.7031 Q2049.0938,55.3281 2048.4844,55.1094 Q2047.875,54.8906 2047.25,54.8906 Q2046.4844,54.8906 2045.8438,55.2188 Q2045.2188,55.5469 2044.7188,56.2969 Q2044.2344,57.0469 2044.2344,58.0781 L2044.2344,59.1719 Q2044.2344,60.4063 2045.125,61.2344 Q2046.0156,62.0469 2047.6094,62.0469 Q2048.5469,62.0469 2049.2031,61.7969 Q2049.5938,61.6406 2050.0156,61.2031 Q2050.2813,60.9375 2050.4219,60.8594 Q2050.5781,60.7813 2050.7813,60.7813 Q2051.1094,60.7813 2051.3594,61.0469 Q2051.625,61.2969 2051.625,61.6406 Q2051.625,61.9844 2051.2813,62.3906 Q2050.7813,62.9688 2049.9844,63.2969 Q2048.9063,63.75 2047.6094,63.75 Q2046.0938,63.75 2044.8906,63.125 Q2043.9063,62.625 2043.2188,61.5625 Q2042.5313,60.4844 2042.5313,59.2031 L2042.5313,58.0469 Q2042.5313,56.7188 2043.1406,55.5781 Q2043.7656,54.4219 2044.8594,53.8125 Q2045.9531,53.1875 2047.1875,53.1875 Q2047.9219,53.1875 2048.5625,53.3594 Q2049.2188,53.5156 2049.7656,53.875 Z " fill="#000000"/><text fill="#000000" font-family="sans-serif" font-size="14" lengthAdjust="spacing" textLength="124" x="2061" y="63.7285">ActionFilterAttribute</text><line style="stroke:#181818;stroke-width:0.5;" x1="2033" x2="2187" y1="74" y2="74"/><line style="stroke:#181818;stroke-width:0.5;" x1="2033" x2="2187" y1="82" y2="82"/></g><!--MD5=[8f8c0a7811c5260240b10835af59360f]
class IgnoreRfc7807Attribute--><g id="elem_IgnoreRfc7807Attribute"><rect codeLine="14" fill="#F1F1F1" height="48" id="IgnoreRfc7807Attribute" rx="2.5" ry="2.5" style="stroke:#181818;stroke-width:0.5;" width="178" x="801" y="254"/><ellipse cx="816" cy="270" fill="#ADD1B2" rx="11" ry="11" style="stroke:#181818;stroke-width:1.0;"/><path d="M818.7656,265.875 Q818.9219,265.6563 819.1094,265.5469 Q819.2969,265.4375 819.5156,265.4375 Q819.8906,265.4375 820.125,265.7031 Q820.3594,265.9531 820.3594,266.5625 L820.3594,268.0156 Q820.3594,268.625 820.125,268.8906 Q819.8906,269.1563 819.5156,269.1563 Q819.1719,269.1563 818.9688,268.9531 Q818.7656,268.7656 818.6563,268.25 Q818.6094,267.8906 818.4219,267.7031 Q818.0938,267.3281 817.4844,267.1094 Q816.875,266.8906 816.25,266.8906 Q815.4844,266.8906 814.8438,267.2188 Q814.2188,267.5469 813.7188,268.2969 Q813.2344,269.0469 813.2344,270.0781 L813.2344,271.1719 Q813.2344,272.4063 814.125,273.2344 Q815.0156,274.0469 816.6094,274.0469 Q817.5469,274.0469 818.2031,273.7969 Q818.5938,273.6406 819.0156,273.2031 Q819.2813,272.9375 819.4219,272.8594 Q819.5781,272.7813 819.7813,272.7813 Q820.1094,272.7813 820.3594,273.0469 Q820.625,273.2969 820.625,273.6406 Q820.625,273.9844 820.2813,274.3906 Q819.7813,274.9688 818.9844,275.2969 Q817.9063,275.75 816.6094,275.75 Q815.0938,275.75 813.8906,275.125 Q812.9063,274.625 812.2188,273.5625 Q811.5313,272.4844 811.5313,271.2031 L811.5313,270.0469 Q811.5313,268.7188 812.1406,267.5781 Q812.7656,266.4219 813.8594,265.8125 Q814.9531,265.1875 816.1875,265.1875 Q816.9219,265.1875 817.5625,265.3594 Q818.2188,265.5156 818.7656,265.875 Z " fill="#000000"/><text fill="#000000" font-family="sans-serif" font-size="14" lengthAdjust="spacing" textLength="146" x="830" y="275.7285">IgnoreRfc7807Attribute</text><line style="stroke:#181818;stroke-width:0.5;" x1="802" x2="978" y1="286" y2="286"/><line style="stroke:#181818;stroke-width:0.5;" x1="802" x2="978" y1="294" y2="294"/></g><!--MD5=[007a98707f8a438bc4b06873e7c664ea]
class Rfc7807Args--><g id="elem_Rfc7807Args"><rect codeLine="17" fill="#F1F1F1" height="100.8281" id="Rfc7807Args" rx="2.5" ry="2.5" style="stroke:#181818;stroke-width:0.5;" width="286" x="1513" y="227.5"/><ellipse cx="1610.75" cy="243.5" fill="#ADD1B2" rx="11" ry="11" style="stroke:#181818;stroke-width:1.0;"/><path d="M1613.5156,239.375 Q1613.6719,239.1563 1613.8594,239.0469 Q1614.0469,238.9375 1614.2656,238.9375 Q1614.6406,238.9375 1614.875,239.2031 Q1615.1094,239.4531 1615.1094,240.0625 L1615.1094,241.5156 Q1615.1094,242.125 1614.875,242.3906 Q1614.6406,242.6563 1614.2656,242.6563 Q1613.9219,242.6563 1613.7188,242.4531 Q1613.5156,242.2656 1613.4063,241.75 Q1613.3594,241.3906 1613.1719,241.2031 Q1612.8438,240.8281 1612.2344,240.6094 Q1611.625,240.3906 1611,240.3906 Q1610.2344,240.3906 1609.5938,240.7188 Q1608.9688,241.0469 1608.4688,241.7969 Q1607.9844,242.5469 1607.9844,243.5781 L1607.9844,244.6719 Q1607.9844,245.9063 1608.875,246.7344 Q1609.7656,247.5469 1611.3594,247.5469 Q1612.2969,247.5469 1612.9531,247.2969 Q1613.3438,247.1406 1613.7656,246.7031 Q1614.0313,246.4375 1614.1719,246.3594 Q1614.3281,246.2813 1614.5313,246.2813 Q1614.8594,246.2813 1615.1094,246.5469 Q1615.375,246.7969 1615.375,247.1406 Q1615.375,247.4844 1615.0313,247.8906 Q1614.5313,248.4688 1613.7344,248.7969 Q1612.6563,249.25 1611.3594,249.25 Q1609.8438,249.25 1608.6406,248.625 Q1607.6563,248.125 1606.9688,247.0625 Q1606.2813,245.9844 1606.2813,244.7031 L1606.2813,243.5469 Q1606.2813,242.2188 1606.8906,241.0781 Q1607.5156,239.9219 1608.6094,239.3125 Q1609.7031,238.6875 1610.9375,238.6875 Q1611.6719,238.6875 1612.3125,238.8594 Q1612.9688,239.0156 1613.5156,239.375 Z " fill="#000000"/><text fill="#000000" font-family="sans-serif" font-size="14" lengthAdjust="spacing" textLength="82" x="1631.25" y="249.2285">Rfc7807Args</text><line style="stroke:#181818;stroke-width:0.5;" x1="1514" x2="1798" y1="259.5" y2="259.5"/><ellipse cx="1524" cy="273.8047" fill="none" rx="3" ry="3" style="stroke:#038048;stroke-width:1.0;"/><text fill="#000000" font-family="sans-serif" font-size="14" lengthAdjust="spacing" textLength="61" x="1533" y="278.0332">Type : Uri</text><ellipse cx="1524" cy="291.4141" fill="none" rx="3" ry="3" style="stroke:#038048;stroke-width:1.0;"/><text fill="#000000" font-family="sans-serif" font-size="14" lengthAdjust="spacing" textLength="82" x="1533" y="295.6426">Instance : Uri</text><ellipse cx="1524" cy="309.0234" fill="none" rx="3" ry="3" style="stroke:#038048;stroke-width:1.0;"/><text fill="#000000" font-family="sans-serif" font-size="14" lengthAdjust="spacing" textLength="260" x="1533" y="313.252">Message : List&lt;string&gt; = new List&lt;string&gt;</text><line style="stroke:#181818;stroke-width:0.5;" x1="1514" x2="1798" y1="320.3281" y2="320.3281"/></g><!--MD5=[34149fe9de414d20eca7677a7b378084]
class Rfc7807Attribute--><g id="elem_Rfc7807Attribute"><rect codeLine="23" fill="#F1F1F1" height="83.2188" id="Rfc7807Attribute" rx="2.5" ry="2.5" style="stroke:#181818;stroke-width:0.5;" width="552" x="1834" y="236.5"/><ellipse cx="2052.75" cy="252.5" fill="#ADD1B2" rx="11" ry="11" style="stroke:#181818;stroke-width:1.0;"/><path d="M2055.5156,248.375 Q2055.6719,248.1563 2055.8594,248.0469 Q2056.0469,247.9375 2056.2656,247.9375 Q2056.6406,247.9375 2056.875,248.2031 Q2057.1094,248.4531 2057.1094,249.0625 L2057.1094,250.5156 Q2057.1094,251.125 2056.875,251.3906 Q2056.6406,251.6563 2056.2656,251.6563 Q2055.9219,251.6563 2055.7188,251.4531 Q2055.5156,251.2656 2055.4063,250.75 Q2055.3594,250.3906 2055.1719,250.2031 Q2054.8438,249.8281 2054.2344,249.6094 Q2053.625,249.3906 2053,249.3906 Q2052.2344,249.3906 2051.5938,249.7188 Q2050.9688,250.0469 2050.4688,250.7969 Q2049.9844,251.5469 2049.9844,252.5781 L2049.9844,253.6719 Q2049.9844,254.9063 2050.875,255.7344 Q2051.7656,256.5469 2053.3594,256.5469 Q2054.2969,256.5469 2054.9531,256.2969 Q2055.3438,256.1406 2055.7656,255.7031 Q2056.0313,255.4375 2056.1719,255.3594 Q2056.3281,255.2813 2056.5313,255.2813 Q2056.8594,255.2813 2057.1094,255.5469 Q2057.375,255.7969 2057.375,256.1406 Q2057.375,256.4844 2057.0313,256.8906 Q2056.5313,257.4688 2055.7344,257.7969 Q2054.6563,258.25 2053.3594,258.25 Q2051.8438,258.25 2050.6406,257.625 Q2049.6563,257.125 2048.9688,256.0625 Q2048.2813,254.9844 2048.2813,253.7031 L2048.2813,252.5469 Q2048.2813,251.2188 2048.8906,250.0781 Q2049.5156,248.9219 2050.6094,248.3125 Q2051.7031,247.6875 2052.9375,247.6875 Q2053.6719,247.6875 2054.3125,247.8594 Q2054.9688,248.0156 2055.5156,248.375 Z " fill="#000000"/><text fill="#000000" font-family="sans-serif" font-size="14" lengthAdjust="spacing" textLength="106" x="2073.25" y="258.2285">Rfc7807Attribute</text><line style="stroke:#181818;stroke-width:0.5;" x1="1835" x2="2385" y1="268.5" y2="268.5"/><line style="stroke:#181818;stroke-width:0.5;" x1="1835" x2="2385" y1="276.5" y2="276.5"/><polygon fill="#FFFF44" points="1845,285.8047,1849,289.8047,1845,293.8047,1841,289.8047" style="stroke:#B38D22;stroke-width:1.0;"/><text fill="#000000" font-family="sans-serif" font-size="14" lengthAdjust="spacing" textLength="526" x="1854" y="295.0332">virtual AttachRfc7807Result(ref response : ObjectResult, args : Rfc7807Args) : void</text><ellipse cx="1845" cy="308.4141" fill="#84BE84" rx="3" ry="3" style="stroke:#038048;stroke-width:1.0;"/><text fill="#000000" font-family="sans-serif" font-size="14" lengthAdjust="spacing" textLength="379" x="1854" y="312.6426">^OnResultExecuting(context : ResultExecutingContext) : void</text></g><!--MD5=[1213f13111420c3f79f619c3ff9c3f60]
class Rfc7807EndpointAttribute--><g id="elem_Rfc7807EndpointAttribute"><rect codeLine="28" fill="#F1F1F1" height="136.0469" id="Rfc7807EndpointAttribute" rx="2.5" ry="2.5" style="stroke:#181818;stroke-width:0.5;" width="463" x="1014.5" y="210"/><ellipse cx="1160.75" cy="226" fill="#ADD1B2" rx="11" ry="11" style="stroke:#181818;stroke-width:1.0;"/><path d="M1163.5156,221.875 Q1163.6719,221.6563 1163.8594,221.5469 Q1164.0469,221.4375 1164.2656,221.4375 Q1164.6406,221.4375 1164.875,221.7031 Q1165.1094,221.9531 1165.1094,222.5625 L1165.1094,224.0156 Q1165.1094,224.625 1164.875,224.8906 Q1164.6406,225.1563 1164.2656,225.1563 Q1163.9219,225.1563 1163.7188,224.9531 Q1163.5156,224.7656 1163.4063,224.25 Q1163.3594,223.8906 1163.1719,223.7031 Q1162.8438,223.3281 1162.2344,223.1094 Q1161.625,222.8906 1161,222.8906 Q1160.2344,222.8906 1159.5938,223.2188 Q1158.9688,223.5469 1158.4688,224.2969 Q1157.9844,225.0469 1157.9844,226.0781 L1157.9844,227.1719 Q1157.9844,228.4063 1158.875,229.2344 Q1159.7656,230.0469 1161.3594,230.0469 Q1162.2969,230.0469 1162.9531,229.7969 Q1163.3438,229.6406 1163.7656,229.2031 Q1164.0313,228.9375 1164.1719,228.8594 Q1164.3281,228.7813 1164.5313,228.7813 Q1164.8594,228.7813 1165.1094,229.0469 Q1165.375,229.2969 1165.375,229.6406 Q1165.375,229.9844 1165.0313,230.3906 Q1164.5313,230.9688 1163.7344,231.2969 Q1162.6563,231.75 1161.3594,231.75 Q1159.8438,231.75 1158.6406,231.125 Q1157.6563,230.625 1156.9688,229.5625 Q1156.2813,228.4844 1156.2813,227.2031 L1156.2813,226.0469 Q1156.2813,224.7188 1156.8906,223.5781 Q1157.5156,222.4219 1158.6094,221.8125 Q1159.7031,221.1875 1160.9375,221.1875 Q1161.6719,221.1875 1162.3125,221.3594 Q1162.9688,221.5156 1163.5156,221.875 Z " fill="#000000"/><text fill="#000000" font-family="sans-serif" font-size="14" lengthAdjust="spacing" textLength="162" x="1181.25" y="231.7285">Rfc7807EndpointAttribute</text><line style="stroke:#181818;stroke-width:0.5;" x1="1015.5" x2="1476.5" y1="242" y2="242"/><ellipse cx="1025.5" cy="277.9141" fill="none" rx="3" ry="3" style="stroke:#038048;stroke-width:1.0;"/><text fill="#000000" font-family="sans-serif" font-size="14" lengthAdjust="spacing" textLength="225" x="1034.5" y="282.1426">«get» StatusCode : HttpStatusCode</text><ellipse cx="1025.5" cy="295.5234" fill="none" rx="3" ry="3" style="stroke:#038048;stroke-width:1.0;"/><text fill="#000000" font-family="sans-serif" font-size="14" lengthAdjust="spacing" textLength="101" x="1034.5" y="299.752">«get» Type : Uri</text><line style="stroke:#181818;stroke-width:1.0;" x1="1015.5" x2="1213.5" y1="258.8047" y2="258.8047"/><text fill="#000000" font-family="sans-serif" font-size="14" lengthAdjust="spacing" textLength="65" x="1213.5" y="264.0332">Properties</text><line style="stroke:#181818;stroke-width:1.0;" x1="1278.5" x2="1476.5" y1="258.8047" y2="258.8047"/><ellipse cx="1025.5" cy="334.7422" fill="#84BE84" rx="3" ry="3" style="stroke:#038048;stroke-width:1.0;"/><text fill="#000000" font-family="sans-serif" font-size="14" lengthAdjust="spacing" textLength="437" x="1034.5" y="338.9707">Rfc7807EndpointAttribute(statusCode : HttpStatusCode, type : string)</text><line style="stroke:#181818;stroke-width:1.0;" x1="1015.5" x2="1205.5" y1="315.6328" y2="315.6328"/><text fill="#000000" font-family="sans-serif" font-size="14" lengthAdjust="spacing" textLength="81" x="1205.5" y="320.8613">Constructors</text><line style="stroke:#181818;stroke-width:1.0;" x1="1286.5" x2="1476.5" y1="315.6328" y2="315.6328"/></g><!--MD5=[4e76b5a2cadfff47c8ad5b4639d27192]
class Rfc7807EndpointLogAttribute--><g id="elem_Rfc7807EndpointLogAttribute"><rect codeLine="36" fill="#F1F1F1" height="118.4375" id="Rfc7807EndpointLogAttribute" rx="2.5" ry="2.5" style="stroke:#181818;stroke-width:0.5;" width="322" x="444" y="219"/><ellipse cx="507.75" cy="235" fill="#ADD1B2" rx="11" ry="11" style="stroke:#181818;stroke-width:1.0;"/><path d="M510.5156,230.875 Q510.6719,230.6563 510.8594,230.5469 Q511.0469,230.4375 511.2656,230.4375 Q511.6406,230.4375 511.875,230.7031 Q512.1094,230.9531 512.1094,231.5625 L512.1094,233.0156 Q512.1094,233.625 511.875,233.8906 Q511.6406,234.1563 511.2656,234.1563 Q510.9219,234.1563 510.7188,233.9531 Q510.5156,233.7656 510.4063,233.25 Q510.3594,232.8906 510.1719,232.7031 Q509.8438,232.3281 509.2344,232.1094 Q508.625,231.8906 508,231.8906 Q507.2344,231.8906 506.5938,232.2188 Q505.9688,232.5469 505.4688,233.2969 Q504.9844,234.0469 504.9844,235.0781 L504.9844,236.1719 Q504.9844,237.4063 505.875,238.2344 Q506.7656,239.0469 508.3594,239.0469 Q509.2969,239.0469 509.9531,238.7969 Q510.3438,238.6406 510.7656,238.2031 Q511.0313,237.9375 511.1719,237.8594 Q511.3281,237.7813 511.5313,237.7813 Q511.8594,237.7813 512.1094,238.0469 Q512.375,238.2969 512.375,238.6406 Q512.375,238.9844 512.0313,239.3906 Q511.5313,239.9688 510.7344,240.2969 Q509.6563,240.75 508.3594,240.75 Q506.8438,240.75 505.6406,240.125 Q504.6563,239.625 503.9688,238.5625 Q503.2813,237.4844 503.2813,236.2031 L503.2813,235.0469 Q503.2813,233.7188 503.8906,232.5781 Q504.5156,231.4219 505.6094,230.8125 Q506.7031,230.1875 507.9375,230.1875 Q508.6719,230.1875 509.3125,230.3594 Q509.9688,230.5156 510.5156,230.875 Z " fill="#000000"/><text fill="#000000" font-family="sans-serif" font-size="14" lengthAdjust="spacing" textLength="186" x="528.25" y="240.7285">Rfc7807EndpointLogAttribute</text><line style="stroke:#181818;stroke-width:0.5;" x1="445" x2="765" y1="251" y2="251"/><ellipse cx="455" cy="286.9141" fill="none" rx="3" ry="3" style="stroke:#038048;stroke-width:1.0;"/><text fill="#000000" font-family="sans-serif" font-size="14" lengthAdjust="spacing" textLength="122" x="464" y="291.1426">«get» Instance : Uri</text><line style="stroke:#181818;stroke-width:1.0;" x1="445" x2="572.5" y1="267.8047" y2="267.8047"/><text fill="#000000" font-family="sans-serif" font-size="14" lengthAdjust="spacing" textLength="65" x="572.5" y="273.0332">Properties</text><line style="stroke:#181818;stroke-width:1.0;" x1="637.5" x2="765" y1="267.8047" y2="267.8047"/><ellipse cx="455" cy="326.1328" fill="#84BE84" rx="3" ry="3" style="stroke:#038048;stroke-width:1.0;"/><text fill="#000000" font-family="sans-serif" font-size="14" lengthAdjust="spacing" textLength="296" x="464" y="330.3613">Rfc7807EndpointLogAttribute(instance : string)</text><line style="stroke:#181818;stroke-width:1.0;" x1="445" x2="564.5" y1="307.0234" y2="307.0234"/><text fill="#000000" font-family="sans-serif" font-size="14" lengthAdjust="spacing" textLength="81" x="564.5" y="312.252">Constructors</text><line style="stroke:#181818;stroke-width:1.0;" x1="645.5" x2="765" y1="307.0234" y2="307.0234"/></g><!--MD5=[dc2515513b7389eb6609a2b9b417c65e]
class Rfc9110--><g id="elem_Rfc9110"><rect codeLine="45" fill="#F1F1F1" height="129.1406" id="Rfc9110" rx="2.5" ry="2.5" style="stroke:#181818;stroke-width:0.5;" width="341" x="46.5" y="213.5"/><ellipse cx="186.25" cy="234.8516" fill="#ADD1B2" rx="11" ry="11" style="stroke:#181818;stroke-width:1.0;"/><path d="M189.0156,230.7266 Q189.1719,230.5078 189.3594,230.3984 Q189.5469,230.2891 189.7656,230.2891 Q190.1406,230.2891 190.375,230.5547 Q190.6094,230.8047 190.6094,231.4141 L190.6094,232.8672 Q190.6094,233.4766 190.375,233.7422 Q190.1406,234.0078 189.7656,234.0078 Q189.4219,234.0078 189.2188,233.8047 Q189.0156,233.6172 188.9063,233.1016 Q188.8594,232.7422 188.6719,232.5547 Q188.3438,232.1797 187.7344,231.9609 Q187.125,231.7422 186.5,231.7422 Q185.7344,231.7422 185.0938,232.0703 Q184.4688,232.3984 183.9688,233.1484 Q183.4844,233.8984 183.4844,234.9297 L183.4844,236.0234 Q183.4844,237.2578 184.375,238.0859 Q185.2656,238.8984 186.8594,238.8984 Q187.7969,238.8984 188.4531,238.6484 Q188.8438,238.4922 189.2656,238.0547 Q189.5313,237.7891 189.6719,237.7109 Q189.8281,237.6328 190.0313,237.6328 Q190.3594,237.6328 190.6094,237.8984 Q190.875,238.1484 190.875,238.4922 Q190.875,238.8359 190.5313,239.2422 Q190.0313,239.8203 189.2344,240.1484 Q188.1563,240.6016 186.8594,240.6016 Q185.3438,240.6016 184.1406,239.9766 Q183.1563,239.4766 182.4688,238.4141 Q181.7813,237.3359 181.7813,236.0547 L181.7813,234.8984 Q181.7813,233.5703 182.3906,232.4297 Q183.0156,231.2734 184.1094,230.6641 Q185.2031,230.0391 186.4375,230.0391 Q187.1719,230.0391 187.8125,230.2109 Q188.4688,230.3672 189.0156,230.7266 Z " fill="#000000"/><text fill="#000000" font-family="sans-serif" font-size="12" font-style="italic" lengthAdjust="spacing" textLength="42" x="212.25" y="230.957">«static»</text><text fill="#000000" font-family="sans-serif" font-size="14" lengthAdjust="spacing" textLength="53" x="206.75" y="248.127">Rfc9110</text><line style="stroke:#181818;stroke-width:0.5;" x1="47.5" x2="386.5" y1="256.2031" y2="256.2031"/><rect fill="none" height="6" style="stroke:#C82930;stroke-width:1.0;" width="6" x="54.5" y="267.5078"/><text fill="#000000" font-family="sans-serif" font-size="14" lengthAdjust="spacing" textLength="219" x="66.5" y="274.7363">const AnusedErrorCode : int = 418</text><rect fill="none" height="6" style="stroke:#C82930;stroke-width:1.0;" width="6" x="54.5" y="285.1172"/><text fill="#000000" font-family="sans-serif" font-size="14" lengthAdjust="spacing" textLength="243" x="66.5" y="292.3457">const MisdirectedErrorCode : int = 421</text><rect fill="none" height="6" style="stroke:#C82930;stroke-width:1.0;" width="6" x="54.5" y="302.7266"/><text fill="#000000" font-family="sans-serif" font-size="14" lengthAdjust="spacing" textLength="315" x="66.5" y="309.9551">const UnprocessableContentErrorCode : int = 422</text><ellipse cx="57.5" cy="323.3359" fill="none" rx="3" ry="3" style="stroke:#038048;stroke-width:1.0;"/><text fill="#000000" font-family="sans-serif" font-size="14" lengthAdjust="spacing" textLength="295" x="66.5" y="327.5645">static ClientErrorCodes : Dictionary&lt;int, string&gt;</text><line style="stroke:#181818;stroke-width:0.5;" x1="47.5" x2="386.5" y1="334.6406" y2="334.6406"/></g><!--MD5=[c009c642a87af8c3dab910d9c9bba4df]
reverse link Attribute to IgnoreRfc7807Attribute--><g id="link_Attribute_IgnoreRfc7807Attribute"><path d="M890,110.52 C890,154.11 890,219.52 890,253.94 " fill="none" id="Attribute-backto-IgnoreRfc7807Attribute" style="stroke:#181818;stroke-width:1.0;"/><polygon fill="none" points="883,110.28,890,90.28,897,110.28,883,110.28" style="stroke:#181818;stroke-width:1.0;"/></g><!--MD5=[8f438d5e3a5ff52c2a672c069df373b8]
reverse link ActionFilterAttribute to Rfc7807Attribute--><g id="link_ActionFilterAttribute_Rfc7807Attribute"><path d="M2110,110.49 C2110,147.48 2110,200.2 2110,236.35 " fill="none" id="ActionFilterAttribute-backto-Rfc7807Attribute" style="stroke:#181818;stroke-width:1.0;"/><polygon fill="none" points="2103,110.28,2110,90.28,2117,110.28,2103,110.28" style="stroke:#181818;stroke-width:1.0;"/></g><!--MD5=[f4a35fff1fc4d4cd91071de8e260c94f]
reverse link Attribute to Rfc7807EndpointAttribute--><g id="link_Attribute_Rfc7807EndpointAttribute"><path d="M950.59,97.05 C965.87,104.92 982.15,113.58 997,122 C1045.5,149.5 1098.07,181.83 1142.35,209.83 " fill="none" id="Attribute-backto-Rfc7807EndpointAttribute" style="stroke:#181818;stroke-width:1.0;"/><polygon fill="none" points="947.25,103.21,932.61,87.89,953.61,90.73,947.25,103.21" style="stroke:#181818;stroke-width:1.0;"/></g><!--MD5=[41217e795e9015d574d4dd1abb733aa3]
reverse link Attribute to Rfc7807EndpointLogAttribute--><g id="link_Attribute_Rfc7807EndpointLogAttribute"><path d="M829.42,95.32 C814.18,103.28 798.15,112.4 784,122 C741.82,150.62 698.5,187.88 665.05,218.7 " fill="none" id="Attribute-backto-Rfc7807EndpointLogAttribute" style="stroke:#181818;stroke-width:1.0;"/><polygon fill="none" points="826.41,89,847.42,86.24,832.72,101.5,826.41,89" style="stroke:#181818;stroke-width:1.0;"/></g><!--MD5=[23e1d4b228f46efa19bb539b339b1a65]
@startuml OperationResult_ErrorHandling

package System {
    class Attribute {
    }
}

package Microsoft.AspNetCore.Mvc.Filters {
    class ActionFilterAttribute {
    }
}

package OperationResult.ErrorHandling {
    package Rfc7807 {
        class IgnoreRfc7807Attribute extends Attribute {
        }

        class Rfc7807Args {
            + Type : Uri
            + Instance : Uri
            + Message : List<string> = new List<string>
        }

        class Rfc7807Attribute extends ActionFilterAttribute {
            # virtual AttachRfc7807Result(ref response : ObjectResult, args : Rfc7807Args) : void
            + ^OnResultExecuting(context : ResultExecutingContext) : void
        }

        class Rfc7807EndpointAttribute extends Attribute {
            - -Properties- -
            + <<get>> StatusCode : HttpStatusCode
            + <<get>> Type : Uri
            - -Constructors- -
            + Rfc7807EndpointAttribute(statusCode : HttpStatusCode, type : string)
        }

        class Rfc7807EndpointLogAttribute extends Attribute {
            - -Properties- -
            + <<get>> Instance : Uri
            - -Constructors- -
            + Rfc7807EndpointLogAttribute(instance : string)
        }
    }

    package Rfc9110 {
        class Rfc9110 <<static>> {
            - const AnusedErrorCode : int = 418
            - const MisdirectedErrorCode : int = 421
            - const UnprocessableContentErrorCode : int = 422
            + static ClientErrorCodes : Dictionary<int, string>
        }
    }
}

@enduml

PlantUML version 1.2022.7(Mon Aug 22 20:01:30 EEST 2022)
(GPL source distribution)
Java Runtime: Java(TM) SE Runtime Environment
JVM: Java HotSpot(TM) 64-Bit Server VM
Default Encoding: UTF-8
Language: en
Country: US
--></g></svg>